#!OML:ASF F:\VICON\USERDATA\INSTALL\Justin_Nancy\Justin_Nancy.ASF
:FULLY-SPECIFIED
:DEGREES
268
root 0.716397 17.5537 7.83635 -0.354381 40.5119 -1.3318
lowerback 4.32768 -1.89599 -1.55128
upperback -0.644169 -2.48633 3.78207
thorax -2.85736 -1.17878 4.9523
lowerneck -14.4464 -3.1048 -9.95106
upperneck 25.2856 -2.45728 3.01259
head 10.7085 -1.66187 2.44397
rclavicle -4.66895e-014 3.18055e-014
rhumerus -40.5796 -18.7477 -72.0479
rradius 27.9633
rwrist 7.19172
rhand -14.9647 13.1901
rfingers 7.12502
rthumb 11.1988 -16.491
lclavicle -4.66895e-014 3.18055e-014
lhumerus -29.1967 6.73022 87.0853
lradius 29.4334
lwrist -8.8628
lhand -14.9301 27.13
lfingers 7.12502
lthumb 11.2322 56.8093
rfemur -17.139 1.5932 24.828
rtibia 21.5801
rfoot -4.26031 1.51365
rtoes 10.0569
lfemur -4.11459 -3.72536 -20.8248
ltibia 50.5854
lfoot 17.9864 -18.9642
ltoes 1.26135
269
root 0.802102 17.5659 7.97548 -0.78469 40.4462 -1.91346
lowerback 4.26577 -1.80053 -1.21884
upperback -0.646694 -2.33587 3.89573
thorax -2.8481 -1.1074 4.87098
lowerneck -13.889 -2.92952 -9.52099
upperneck 24.8759 -2.32724 2.80884
head 10.428 -1.57934 2.31484
rclavicle -4.39563e-014 -1.19271e-014
rhumerus -40.6429 -18.3945 -72.2501
rradius 28.3207
rwrist 7.13189
rhand -14.8072 12.9839
rfingers 7.12502
rthumb 11.3507 -16.6889
lclavicle -4.39563e-014 -1.19271e-014
lhumerus -29.4537 6.60896 87.1063
lradius 29.2028
lwrist -9.2915
lhand -15.2361 26.9411
lfingers 7.12502
lthumb 10.937 56.6362
rfemur -16.3381 1.51138 25.4402
rtibia 21.2764
rfoot -4.45998 1.57731
rtoes 11.616
lfemur -5.44019 -3.65599 -20.1003
ltibia 52.7212
lfoot 15.1875 -19.5183
ltoes -4.62722
270
root 0.880993 17.5705 8.10735 -1.0154 40.4479 -2.24865
lowerback 4.28067 -1.71018 -1.03132
upperback -0.626022 -2.20203 3.96785
thorax -2.85171 -1.0426 4.832
lowerneck -13.7776 -2.90887 -9.43241
upperneck 24.6635 -2.31936 2.75547
head 10.326 -1.57 2.28021
rclavicle -4.00054e-014 3.02153e-014
rhumerus -40.3396 -18.249 -72.3435
rradius 28.4502
rwrist 7.13234
rhand -14.2104 12.4777
rfingers 7.12502
rthumb 11.9262 -17.1626
lclavicle -4.00054e-014 3.02153e-014
lhumerus -29.4164 6.65177 87.2433
lradius 28.8563
lwrist -9.36685
lhand -15.1132 27.3997
lfingers 7.12502
lthumb 11.0556 57.0885
rfemur -15.6364 1.34608 25.9043
rtibia 21.0907
rfoot -4.78796 1.74275
rtoes 10.9082
lfemur -6.93181 -3.59788 -19.5979
ltibia 54.6844
lfoot 13.1684 -18.2154
ltoes -6.14606
271
root 0.968308 17.572 8.23126 -1.05917 40.4925 -2.14799
lowerback 4.40213 -1.65451 -1.09209
upperback -0.501862 -2.13082 4.01915
thorax -2.79402 -1.00803 4.91728
lowerneck -14.0768 -2.92151 -9.72225
upperneck 24.6112 -2.27898 2.92818
head 10.369 -1.55643 2.39341
rclavicle -7.9663e-014 -3.33958e-014
rhumerus -39.6407 -17.9852 -72.4158
rradius 28.3868
rwrist 7.1505
rhand -13.9855 12.4027
rfingers 7.12502
rthumb 12.1431 -17.2249
lclavicle -7.9663e-014 -3.33958e-014
lhumerus -29.4156 6.17014 87.7687
lradius 28.9551
lwrist -8.50701
lhand -14.8785 27.7036
lfingers 7.12502
lthumb 11.282 57.3802
rfemur -14.7996 0.90342 25.9834
rtibia 20.8866
rfoot -5.17255 2.01166
rtoes 9.95411
lfemur -8.21834 -3.36346 -19.5404
ltibia 56.4099
lfoot 11.7781 -16.3454
ltoes -4.71537
272
root 1.06099 17.5837 8.35919 -1.11609 40.3629 -2.09356
lowerback 4.42386 -1.54265 -1.02304
upperback -0.422208 -1.982 3.94175
thorax -2.74256 -0.937267 4.78632
lowerneck -14.3104 -2.94194 -9.80257
upperneck 24.7868 -2.32569 3.17217
head 10.4844 -1.55906 2.4895
rclavicle 2.28105e-014 -1.43125e-014
rhumerus -39.1327 -17.8378 -72.6296
rradius 28.2146
rwrist 7.37327
rhand -14.4795 12.9031
rfingers 7.12502
rthumb 11.6668 -16.752
lclavicle 2.28105e-014 -1.43125e-014
lhumerus -29.5549 5.68508 87.9379
lradius 28.956
lwrist -8.39014
lhand -14.7587 27.497
lfingers 7.12502
lthumb 11.3974 57.1672
rfemur -13.9684 1.05829 25.9589
rtibia 20.6167
rfoot -5.36158 1.95714
rtoes 12.5162
lfemur -9.35125 -2.90696 -19.4367
ltibia 57.9052
lfoot 10.6997 -14.4729
ltoes -1.96702
273
root 1.14575 17.596 8.49318 -1.4203 40.1485 -2.33485
lowerback 4.51213 -1.36357 -0.764015
upperback -0.376558 -1.73256 3.81636
thorax -2.77864 -0.817347 4.49418
lowerneck -14.3845 -3.04965 -9.66384
upperneck 24.9801 -2.55083 3.34316
head 10.5843 -1.63193 2.49992
rclavicle 1.15146e-013 3.89618e-014
rhumerus -38.8835 -18.0128 -72.8981
rradius 28.1093
rwrist 7.70404
rhand -15.1834 13.0934
rfingers 7.12502
rthumb 10.9878 -16.599
lclavicle 1.15146e-013 3.89618e-014
lhumerus -29.8881 5.46599 87.7156
lradius 28.9531
lwrist -9.08456
lhand -15.1923 26.5547
lfingers 7.12502
lthumb 10.9793 56.2476
rfemur -13.0277 1.70529 26.1905
rtibia 20.3009
rfoot -5.65616 1.69326
rtoes 12.9922
lfemur -10.5715 -2.28917 -19.0747
ltibia 59.2292
lfoot 8.68968 -13.8235
ltoes -2.85211
274
root 1.22463 17.6034 8.62439 -1.77216 39.9174 -2.72011
lowerback 4.63931 -1.20549 -0.457668
upperback -0.397525 -1.50179 3.79411
thorax -2.89931 -0.70458 4.28654
lowerneck -14.2391 -3.09153 -9.52889
upperneck 24.9608 -2.6705 3.38315
head 10.5548 -1.66944 2.47631
rclavicle -9.98893e-015 3.57812e-014
rhumerus -38.7945 -18.2535 -72.9792
rradius 28.1443
rwrist 8.11199
rhand -15.3443 13.1122
rfingers 7.12502
rthumb 10.8327 -16.5884
lclavicle -9.98893e-015 3.57812e-014
lhumerus -30.399 4.80819 87.7363
lradius 29.2227
lwrist -8.81622
lhand -15.0604 27.0352
lfingers 7.12502
lthumb 11.1065 56.7213
rfemur -12.0895 1.93569 26.675
rtibia 19.8541
rfoot -5.97223 1.76891
rtoes 10.2785
lfemur -11.9515 -1.39738 -18.5434
ltibia 60.4348
lfoot 6.7376 -13.5613
ltoes -3.56072
